<?xml version="1.0" standalone="no"?>
<!DOCTYPE svg PUBLIC "-//W3C//DTD SVG 20010904//EN"
 "http://www.w3.org/TR/2001/REC-SVG-20010904/DTD/svg10.dtd">
<svg version="1.0" xmlns="http://www.w3.org/2000/svg"
 width="2272.000000pt" height="1704.000000pt" viewBox="0 0 2272.000000 1704.000000"
 preserveAspectRatio="xMidYMid meet">

<g transform="translate(0.000000,1704.000000) scale(0.100000,-0.100000)"
fill="#6D6B6D" stroke="none">
<path d="M3810 9740 c-308 -30 -634 -173 -902 -396 -312 -261 -529 -746 -529
-1184 1 -254 67 -495 207 -745 83 -148 157 -248 269 -360 210 -211 489 -354
835 -426 148 -31 374 -32 515 -1 145 31 273 76 410 142 115 56 305 173 305
188 0 4 -37 45 -83 90 l-83 83 -75 -49 c-219 -145 -506 -232 -762 -232 -269 0
-576 115 -821 307 -341 267 -539 827 -447 1260 70 331 274 660 517 835 269
193 652 292 945 244 186 -31 385 -110 556 -222 l88 -57 82 88 c46 48 83 91 83
96 0 13 -159 114 -259 164 -176 88 -415 154 -629 175 -107 10 -114 10 -222 0z"/>
<path d="M7460 8190 l0 -1540 120 0 120 0 0 1540 0 1540 -120 0 -120 0 0
-1540z"/>
<path d="M10160 9717 c-30 -15 -70 -90 -70 -132 0 -46 31 -98 70 -117 74 -37
167 -11 199 56 18 38 16 112 -4 143 -37 56 -133 81 -195 50z"/>
<path d="M13420 8190 l0 -1540 110 0 110 0 0 665 0 665 111 120 c61 66 115
118 119 115 4 -2 249 -355 546 -784 l539 -780 143 -1 c91 0 141 4 137 10 -3 5
-273 393 -598 862 -326 469 -596 858 -600 864 -4 7 223 260 569 635 317 343
592 641 612 662 l36 37 -161 0 -161 0 -644 -692 -643 -693 -3 698 -2 697 -110
0 -110 0 0 -1540z"/>
<path d="M15590 8190 l0 -1540 115 0 115 0 0 1540 0 1540 -115 0 -115 0 0
-1540z"/>
<path d="M18628 9715 c-56 -32 -83 -134 -51 -194 41 -77 155 -94 216 -32 30
29 32 36 32 101 0 65 -2 72 -32 101 -26 27 -41 33 -85 36 -35 2 -62 -2 -80
-12z"/>
<path d="M5830 8615 c-209 -42 -427 -160 -567 -309 -157 -165 -258 -412 -270
-662 -10 -203 48 -398 181 -604 146 -226 385 -371 700 -426 283 -50 591 62
853 310 l83 78 0 -176 0 -176 110 0 110 0 0 960 0 960 -110 0 -110 0 0 -167 0
-167 -50 57 c-216 241 -625 383 -930 322z m300 -219 c275 -49 499 -224 596
-466 115 -284 78 -556 -108 -802 -178 -234 -520 -353 -801 -279 -218 57 -404
205 -506 401 -66 126 -94 235 -94 370 -1 133 14 202 74 328 81 175 193 294
344 367 170 83 335 110 495 81z"/>
<path d="M11375 8616 c-136 -32 -256 -95 -347 -184 l-48 -46 0 92 0 92 -110 0
-110 0 0 -960 0 -960 110 0 110 0 0 625 c0 700 1 718 68 855 45 94 133 185
215 224 79 37 198 66 270 66 190 0 386 -122 471 -293 66 -134 66 -132 66 -839
l0 -638 116 0 116 0 -4 658 c-4 638 -5 659 -26 736 -44 158 -140 315 -251 410
-65 55 -189 117 -291 146 -97 28 -271 35 -355 16z"/>
<path d="M17010 8611 c-168 -36 -347 -124 -484 -238 -261 -216 -392 -675 -292
-1018 66 -226 199 -425 361 -540 245 -174 578 -241 850 -171 182 47 345 144
487 289 64 65 178 221 178 242 0 6 -43 29 -95 52 l-95 42 -36 -57 c-178 -282
-569 -437 -878 -347 -253 73 -436 232 -525 457 -29 73 -61 205 -61 253 l0 25
896 0 897 0 -6 98 c-16 276 -190 588 -413 739 -233 159 -537 226 -784 174z
m375 -215 c33 -9 106 -39 163 -67 183 -91 318 -242 405 -451 l16 -38 -761 0
-760 0 6 28 c23 92 145 274 244 362 89 79 227 144 372 175 80 18 232 13 315
-9z"/>
<path d="M19865 8616 c-136 -32 -253 -94 -340 -181 l-45 -44 0 89 0 90 -120 0
-120 0 0 -960 0 -960 120 0 119 0 3 668 3 667 26 72 c32 87 107 201 157 241
88 70 242 122 356 122 186 0 386 -121 463 -281 67 -136 66 -127 70 -841 l4
-648 115 0 114 0 0 640 c0 704 -1 722 -61 866 -121 290 -368 458 -694 470 -72
2 -131 -1 -170 -10z"/>
<path d="M7930 8563 c0 -19 945 -2032 951 -2025 8 10 919 2017 919 2026 0 4
-55 5 -122 4 l-123 -3 -331 -730 c-183 -401 -336 -736 -341 -744 -6 -10 -111
208 -353 732 l-345 746 -127 1 c-71 0 -128 -3 -128 -7z"/>
<path d="M10120 7610 l0 -960 110 0 110 0 0 960 0 960 -110 0 -110 0 0 -960z"/>
<path d="M18590 7610 l0 -960 110 0 110 0 0 960 0 960 -110 0 -110 0 0 -960z"/>
</g>
</svg>
