<?xml version="1.0" standalone="no"?>
<!DOCTYPE svg PUBLIC "-//W3C//DTD SVG 20010904//EN"
 "http://www.w3.org/TR/2001/REC-SVG-20010904/DTD/svg10.dtd">
<svg version="1.0" xmlns="http://www.w3.org/2000/svg"
 width="1600.000000pt" height="1216.000000pt" viewBox="0 0 1600.000000 1216.000000"
 preserveAspectRatio="xMidYMid meet">

<g transform="translate(0.000000,1216.000000) scale(0.100000,-0.100000)"
fill="#6D6B6D" stroke="none">
<path d="M9252 11054 c-383 -41 -734 -147 -1128 -340 -83 -41 -156 -74 -161
-74 -6 0 -70 30 -144 68 -248 125 -429 195 -669 258 -298 78 -432 92 -876 89
-410 -3 -461 -7 -639 -45 -221 -48 -517 -139 -650 -200 -36 -16 -68 -30 -71
-30 -15 0 -253 -125 -354 -186 -457 -275 -900 -713 -1165 -1154 -37 -62 -54
-100 -48 -108 4 -8 89 -55 188 -106 192 -98 450 -232 632 -327 61 -33 115 -59
120 -59 4 1 40 49 80 108 178 267 380 471 639 648 194 133 477 266 663 314 20
5 54 14 76 19 144 38 388 71 530 71 168 0 425 -29 565 -65 158 -39 190 -50
190 -66 0 -6 -37 -59 -83 -118 -343 -439 -568 -958 -667 -1536 -48 -279 -52
-768 -9 -1023 51 -302 137 -613 225 -810 13 -29 24 -55 24 -57 0 -11 101 -212
153 -305 71 -125 204 -322 296 -438 36 -46 66 -90 66 -99 0 -20 -76 -43 -275
-82 -339 -68 -664 -61 -1014 20 -201 47 -499 173 -643 270 -23 16 -44 29 -47
29 -9 0 -103 68 -201 146 -171 135 -338 316 -470 507 -60 87 -76 98 -113 78
-9 -6 -120 -62 -247 -125 -126 -63 -282 -142 -345 -175 -63 -34 -161 -85 -217
-114 -57 -28 -103 -56 -103 -60 0 -12 93 -155 179 -277 250 -354 632 -709
1009 -938 103 -62 390 -212 407 -212 3 0 31 -11 61 -25 30 -14 60 -25 67 -25
7 0 17 -4 22 -9 15 -14 252 -88 388 -121 291 -70 481 -92 802 -93 233 -1 333
6 510 34 390 62 723 171 1052 344 l105 55 137 -69 c75 -37 177 -85 226 -106
50 -20 99 -41 110 -46 11 -5 74 -27 140 -48 208 -68 455 -122 700 -152 136
-17 573 -17 705 -1 635 80 1185 295 1669 654 53 40 101 76 107 82 6 6 57 52
114 101 137 120 371 372 475 509 82 110 225 327 225 343 0 4 -46 32 -102 61
-57 29 -177 91 -268 138 -91 47 -259 133 -374 191 l-210 107 -15 -24 c-9 -14
-62 -86 -117 -160 -353 -473 -835 -773 -1449 -902 -100 -21 -135 -23 -400 -23
-316 0 -338 2 -590 64 -105 25 -151 40 -153 51 -1 8 32 58 74 110 248 309 464
719 579 1100 56 185 94 366 127 600 17 128 17 652 0 780 -39 277 -79 454 -157
684 -122 364 -283 667 -527 988 -48 64 -88 122 -88 128 0 17 86 43 285 88 154
35 551 48 732 24 193 -26 456 -99 633 -178 422 -187 754 -470 1029 -876 29
-43 57 -80 62 -83 5 -3 64 23 131 58 68 35 186 97 263 137 77 40 167 87 200
105 33 18 124 65 203 105 79 39 146 78 149 85 5 14 -133 237 -217 350 -147
198 -430 493 -620 645 -95 75 -326 233 -430 294 -84 49 -262 137 -364 181
-319 135 -601 209 -956 249 -167 20 -572 20 -748 0z m-1211 -1866 c83 -97 185
-235 242 -330 46 -76 137 -250 137 -262 0 -3 8 -25 19 -49 42 -95 63 -156 102
-307 93 -358 92 -778 -5 -1151 -50 -195 -173 -477 -282 -649 -53 -84 -195
-274 -249 -334 l-35 -39 -26 24 c-112 104 -280 351 -384 564 -196 399 -266
772 -231 1225 33 428 194 840 464 1190 81 105 158 190 172 190 7 0 41 -33 76
-72z"/>
<path d="M1570 3379 c-302 -56 -574 -201 -795 -424 -255 -256 -377 -561 -376
-945 0 -404 129 -706 417 -978 209 -199 448 -323 734 -383 82 -17 141 -22 270
-22 210 -1 335 20 567 94 l93 30 0 411 0 411 -77 -74 c-87 -83 -190 -142 -313
-180 -64 -20 -96 -24 -220 -23 -123 0 -157 4 -220 23 -329 101 -521 358 -520
696 2 295 150 528 413 650 104 48 194 67 322 67 143 0 234 -21 362 -83 79 -39
119 -67 178 -122 l75 -72 0 407 0 407 -57 21 c-279 104 -593 137 -853 89z"/>
<path d="M2937 3343 c-7 -7 -10 -2637 -3 -2644 2 -2 164 -3 360 -1 l356 2 0
550 0 550 510 0 510 0 0 -550 0 -550 355 0 355 0 0 1325 0 1325 -355 0 -355 0
0 -515 0 -515 -510 0 -510 0 -2 513 -3 512 -351 3 c-193 1 -353 -1 -357 -5z"/>
<path d="M6743 3333 c-3 -10 -23 -61 -44 -113 -21 -52 -99 -250 -174 -440 -75
-190 -161 -406 -190 -480 -47 -121 -207 -525 -507 -1280 -56 -140 -107 -270
-115 -287 l-13 -33 375 0 375 0 10 22 c5 13 47 115 93 228 l84 205 490 3 491
2 52 -137 c28 -76 68 -180 87 -230 l36 -93 378 0 379 0 -24 63 c-55 141 -322
829 -358 922 -22 55 -52 134 -68 175 -15 41 -80 208 -143 370 -309 796 -388
1000 -410 1055 l-23 60 -387 3 c-362 2 -388 1 -394 -15z m586 -1370 c50 -144
91 -266 91 -272 0 -8 -89 -11 -290 -11 -313 0 -303 -2 -280 52 5 13 50 140
101 283 114 327 159 453 171 485 11 27 12 24 207 -537z"/>
<path d="M8870 2023 l0 -1328 355 3 355 2 2 807 3 806 320 -398 c176 -218 468
-581 648 -806 l329 -409 359 0 359 0 0 1325 0 1325 -355 0 -355 0 0 -805 c0
-443 -4 -805 -8 -805 -5 0 -53 55 -107 123 -54 67 -189 235 -300 372 -260 322
-592 735 -763 948 l-134 167 -354 0 -354 0 0 -1327z"/>
<path d="M12170 2025 l0 -1325 780 0 780 0 -2 283 -3 282 -422 3 -423 2 0 235
0 235 400 0 400 0 0 290 0 290 -400 0 -400 0 0 225 0 225 423 2 422 3 0 285 0
285 -777 3 -778 2 0 -1325z"/>
<path d="M14180 2025 l0 -1325 780 0 780 0 0 285 0 285 -425 0 -425 0 -2 1038
-3 1037 -352 3 -353 2 0 -1325z"/>
</g>
</svg>
