<?xml version="1.0" standalone="no"?>
<!DOCTYPE svg PUBLIC "-//W3C//DTD SVG 20010904//EN"
 "http://www.w3.org/TR/2001/REC-SVG-20010904/DTD/svg10.dtd">
<svg version="1.0" xmlns="http://www.w3.org/2000/svg"
 width="1080.000000pt" height="720.000000pt" viewBox="0 0 1080.000000 720.000000"
 preserveAspectRatio="xMidYMid meet">

<g transform="translate(0.000000,720.000000) scale(0.100000,-0.100000)"
fill="#6D6B6D" stroke="none">
<path d="M4987 5450 c-130 -33 -182 -108 -180 -262 1 -127 51 -202 155 -233
98 -29 219 -14 289 35 18 13 42 46 56 78 23 48 25 64 21 146 -5 121 -32 172
-112 211 -60 29 -165 41 -229 25z"/>
<path d="M490 5246 l0 -46 63 -1 c165 -2 247 -20 323 -71 58 -39 86 -90 112
-199 16 -68 17 -175 17 -1379 0 -1194 -1 -1311 -17 -1378 -47 -200 -136 -262
-380 -262 l-118 0 0 -45 0 -45 848 -2 c466 -2 906 0 977 4 560 32 976 197
1291 512 227 228 365 492 441 851 26 122 27 145 27 385 1 224 -2 270 -22 375
-82 430 -310 793 -655 1039 -217 155 -505 238 -997 287 -73 7 -442 13 -1012
16 l-898 5 0 -46z m1829 -170 c417 -63 747 -290 959 -660 278 -485 278 -1234
-1 -1736 -198 -356 -440 -552 -793 -641 -140 -35 -221 -44 -404 -44 -184 0
-335 16 -519 56 l-51 11 2 1481 3 1481 106 23 c236 50 486 60 698 29z"/>
<path d="M4822 4091 c-189 -75 -350 -141 -358 -146 -12 -9 -11 -16 5 -52 l19
-41 43 14 c77 27 159 29 213 6 100 -45 106 -97 106 -989 0 -743 -3 -779 -54
-867 -39 -67 -131 -106 -253 -107 l-53 -1 0 -44 0 -44 580 0 580 0 0 46 c0 40
-3 46 -18 42 -27 -7 -146 10 -186 27 -64 27 -104 71 -128 143 l-23 67 -3 1043
-3 1042 -62 -1 c-55 -1 -100 -16 -405 -138z"/>
<path d="M6947 4215 c-276 -46 -506 -183 -682 -410 -145 -186 -225 -359 -272
-585 -24 -120 -24 -384 0 -500 56 -262 189 -513 366 -690 138 -138 293 -221
491 -263 117 -24 356 -29 470 -8 258 46 477 171 637 362 155 185 242 355 301
589 24 96 26 122 27 305 0 134 -5 220 -14 260 -89 395 -346 732 -659 865 -186
79 -454 109 -665 75z m262 -171 c246 -70 442 -321 537 -683 39 -151 57 -315
57 -531 0 -391 -71 -632 -228 -778 -121 -112 -297 -156 -478 -117 -113 24
-191 69 -287 165 -158 158 -273 419 -327 736 -23 138 -25 518 -4 634 35 194
101 340 201 441 84 86 194 140 305 151 61 6 171 -3 224 -18z"/>
<path d="M8885 4088 c-198 -78 -361 -142 -363 -144 -2 -1 2 -21 8 -46 l11 -44
67 17 c125 33 197 20 245 -42 61 -82 69 -209 65 -1049 l-3 -685 -23 -47 c-40
-80 -153 -135 -292 -141 l-55 -2 -3 -42 -3 -43 615 0 616 0 0 44 0 44 -57 1
c-140 1 -246 51 -294 136 -62 112 -62 109 -66 805 l-4 635 67 113 c88 146 169
243 228 272 55 26 61 25 191 -51 166 -96 208 -112 276 -106 130 11 194 87 194
226 -1 128 -49 197 -180 257 -220 101 -464 -30 -693 -375 l-77 -115 -3 262 -2
262 -53 0 c-43 -1 -114 -25 -412 -142z"/>
</g>
</svg>
