<?xml version="1.0" standalone="no"?>
<!DOCTYPE svg PUBLIC "-//W3C//DTD SVG 20010904//EN"
 "http://www.w3.org/TR/2001/REC-SVG-20010904/DTD/svg10.dtd">
<svg version="1.0" xmlns="http://www.w3.org/2000/svg"
 width="3000.000000pt" height="3000.000000pt" viewBox="0 0 3000.000000 3000.000000"
 preserveAspectRatio="xMidYMid meet">

<g transform="translate(0.000000,3000.000000) scale(0.100000,-0.100000)"
fill="#6D6B6D" stroke="none">
<path d="M15149 19217 c-189 -144 -473 -265 -752 -322 -177 -35 -324 -53 -562
-66 -365 -20 -484 -12 -1670 116 -996 107 -1347 140 -1890 174 -901 58 -1537
53 -2030 -14 -1232 -169 -2381 -659 -3245 -1384 -140 -118 -400 -374 -501
-496 -478 -571 -718 -1145 -736 -1756 -12 -414 67 -675 270 -886 203 -211 483
-315 892 -330 354 -13 683 59 1004 218 243 121 428 257 626 460 406 418 631
926 676 1523 9 122 9 185 0 275 -28 276 -117 582 -272 933 l-61 137 -41 -21
c-23 -11 -43 -21 -44 -22 -1 -1 9 -31 21 -66 31 -85 70 -261 98 -440 31 -198
33 -658 4 -815 -27 -147 -79 -346 -121 -460 -87 -235 -263 -546 -425 -750 -93
-116 -280 -305 -395 -398 -256 -207 -547 -352 -827 -414 -66 -14 -124 -18
-283 -17 -183 0 -208 3 -298 27 -380 102 -607 384 -678 842 -17 112 -15 378 4
502 85 541 375 1052 845 1486 632 584 1480 949 2472 1063 188 21 777 29 1131
15 584 -24 932 -51 2099 -166 1345 -133 1708 -158 2300 -158 549 -1 866 36
1190 139 501 159 873 444 1278 981 l62 82 -39 21 c-22 11 -44 20 -49 20 -5 0
-29 -15 -53 -33z"/>
<path d="M17425 18789 c-103 -14 -305 -71 -441 -125 -1300 -513 -3467 -2398
-5676 -4935 -484 -557 -650 -779 -799 -1072 -123 -242 -179 -449 -179 -662 0
-491 140 -866 394 -1059 181 -138 382 -193 664 -183 121 4 168 10 264 35 490
127 1149 541 1848 1160 74 66 136 119 137 118 2 -1 -4 -38 -13 -82 -23 -119
-21 -324 6 -453 89 -436 376 -694 855 -767 155 -24 470 -14 634 21 552 116
1095 442 1736 1042 142 134 373 365 588 590 l97 102 33 -19 c73 -43 181 -62
364 -64 171 -1 172 -1 154 -21 -157 -176 -1331 -1488 -1349 -1508 l-26 -27
650 0 649 1 515 570 c283 314 565 619 625 678 386 375 781 608 1348 792 87 28
160 49 163 46 3 -2 0 -64 -6 -137 -18 -213 15 -328 126 -436 109 -107 247
-149 465 -141 l137 4 -48 -73 c-102 -157 -183 -354 -216 -529 -12 -68 -15
-120 -11 -215 7 -145 23 -213 79 -330 33 -70 56 -100 127 -170 137 -135 275
-190 481 -190 163 0 299 31 483 111 368 159 931 571 1602 1173 50 45 100 89
112 99 l22 19 -19 -64 c-52 -174 -65 -409 -31 -573 70 -339 312 -590 674 -699
179 -54 240 -61 547 -60 243 0 306 3 427 22 545 85 954 293 1333 676 63 64
122 116 130 116 29 0 277 89 389 138 211 95 451 243 643 397 119 96 317 296
400 405 63 83 158 236 158 255 0 16 -78 51 -89 39 -4 -5 -34 -47 -66 -94 -259
-376 -646 -697 -1075 -890 -114 -51 -251 -102 -257 -96 -3 2 23 51 57 108 127
214 205 405 235 576 20 111 19 308 -1 413 -53 280 -241 694 -594 1309 l-67
116 100 104 c271 284 417 487 472 659 23 70 17 179 -13 236 -43 85 -125 138
-213 139 -47 1 -70 -6 -140 -41 -46 -23 -121 -71 -166 -107 -205 -163 -339
-416 -345 -651 -3 -98 14 -152 83 -267 l50 -82 -712 -712 -711 -711 -76 39
c-134 67 -286 73 -447 18 -31 -11 -62 -16 -71 -13 -9 3 -27 -5 -42 -19 -15
-14 -58 -45 -97 -71 -92 -60 -180 -141 -255 -234 -64 -79 -317 -309 -647 -589
-860 -728 -1382 -1050 -1713 -1057 -99 -2 -145 15 -187 70 -21 27 -27 46 -27
84 0 41 7 58 46 116 74 108 142 185 1527 1748 l1313 1480 -639 3 c-351 1 -643
0 -649 -2 -6 -2 -382 -424 -835 -938 -453 -513 -839 -949 -859 -969 -42 -43
-141 -73 -291 -89 -216 -22 -363 50 -446 219 -26 52 -28 64 -28 186 0 198 -7
189 206 255 855 264 1294 529 1466 885 66 137 91 298 62 396 -35 114 -169 189
-340 189 -367 0 -839 -370 -1246 -980 -74 -111 -194 -317 -225 -387 -17 -39
-22 -42 -76 -53 -333 -67 -697 -205 -989 -376 -24 -14 -35 -16 -43 -8 -9 9
192 228 764 838 427 454 776 828 776 831 0 3 -290 5 -644 5 l-644 0 -805 -899
c-443 -494 -814 -902 -824 -906 -30 -14 -354 -18 -434 -5 -41 6 -95 21 -121
33 l-47 22 65 80 c306 376 469 628 533 822 26 77 51 220 51 287 0 228 -119
379 -330 418 -77 15 -191 0 -279 -36 l-60 -24 -63 60 c-221 214 -409 278 -817
278 -375 0 -723 -90 -1126 -292 -741 -371 -1455 -1058 -1795 -1728 -69 -136
-70 -138 -197 -260 -599 -576 -1286 -1056 -1783 -1245 -203 -78 -447 -124
-579 -110 -306 33 -437 221 -342 492 68 196 134 283 1093 1452 l833 1013 180
77 c664 285 1307 632 1910 1029 727 478 1301 945 1855 1509 613 623 1016 1208
1137 1649 34 125 39 302 9 399 -59 194 -166 283 -351 290 -44 2 -111 -1 -150
-6z m221 -157 c54 -28 118 -101 139 -160 10 -28 19 -90 22 -152 4 -89 1 -119
-20 -200 -82 -313 -342 -713 -768 -1184 -159 -176 -537 -551 -724 -717 -872
-777 -1864 -1459 -2777 -1909 -227 -112 -485 -226 -494 -217 -6 5 2044 2403
2366 2767 924 1045 1626 1669 2005 1782 80 24 194 19 251 -10z m-304 -4420
c35 -17 78 -46 96 -65 l33 -34 -33 -21 c-42 -26 -141 -129 -195 -202 -102
-140 -184 -313 -230 -488 -38 -145 -38 -307 1 -417 53 -153 177 -310 308 -388
l57 -34 -203 -214 c-375 -396 -717 -704 -1035 -931 -359 -256 -731 -433 -1047
-497 -412 -84 -666 -27 -772 174 -25 45 -27 60 -27 160 0 123 17 189 85 325
149 298 433 627 1194 1384 966 961 1199 1171 1378 1243 85 35 132 42 235 39
80 -3 102 -8 155 -34z m9407 -123 c127 -194 213 -481 196 -654 -28 -279 -218
-568 -745 -1135 -746 -801 -925 -984 -1073 -1096 -318 -240 -614 -245 -848
-14 -162 160 -217 340 -190 625 21 224 80 394 173 499 l44 49 22 -89 c48 -196
154 -345 297 -415 57 -28 81 -34 154 -37 171 -8 309 47 441 177 129 128 189
282 177 455 -6 90 -31 167 -77 239 -16 26 -30 49 -30 52 0 7 1411 1395 1418
1395 4 0 22 -23 41 -51z"/>
<path d="M12730 17719 c-1245 -125 -2147 -459 -3025 -1121 -559 -421 -1111
-970 -1999 -1988 -103 -118 -195 -218 -204 -222 -9 -3 -75 -14 -147 -23 -632
-82 -1264 -326 -1719 -664 -190 -141 -397 -333 -505 -470 l-31 -39 40 -26 c22
-14 42 -26 46 -26 3 0 57 49 119 109 574 551 1241 878 2010 986 50 7 92 11 94
9 7 -6 -515 -670 -813 -1034 -920 -1124 -1505 -1688 -2101 -2023 -324 -182
-660 -279 -1045 -302 -211 -12 -628 19 -870 66 -424 81 -708 247 -751 440 -18
78 3 92 244 155 199 52 307 100 387 172 71 64 115 138 140 236 70 274 -55 554
-301 675 -238 117 -531 89 -723 -69 -265 -219 -329 -648 -151 -1017 201 -415
664 -676 1365 -770 189 -25 866 -25 1110 0 1228 128 2162 541 3120 1380 177
155 625 609 827 837 276 313 718 849 1027 1248 l49 62 448 0 c251 0 449 -4
449 -9 0 -5 -28 -42 -62 -82 -144 -172 -304 -403 -423 -614 -112 -197 -268
-533 -243 -522 59 24 586 282 594 291 7 6 26 45 44 86 92 214 432 782 501 837
8 5 50 13 94 16 341 26 922 195 1241 361 197 103 356 231 417 336 97 168 57
378 -87 452 -91 47 -272 61 -414 32 -303 -61 -719 -291 -1097 -605 -55 -46
-184 -166 -286 -266 l-186 -183 -438 2 -438 3 278 350 c640 805 971 1189 1346
1564 720 718 1387 1103 2119 1222 74 12 136 23 138 24 2 2 -12 32 -30 69 -25
51 -37 66 -53 65 -11 -1 -58 -5 -105 -10z m-915 -2384 c22 -11 50 -36 63 -55
20 -30 23 -44 19 -95 -7 -88 -39 -149 -126 -235 -191 -188 -623 -351 -1261
-475 -102 -19 -193 -37 -202 -39 -24 -5 -23 -2 14 52 228 337 761 744 1108
847 75 22 101 25 215 22 106 -2 137 -6 170 -22z"/>
<path d="M25295 16595 c-228 -61 -411 -213 -516 -428 -92 -191 -66 -377 74
-510 125 -119 336 -163 538 -112 297 76 558 375 559 641 0 195 -132 355 -337
408 -75 20 -248 20 -318 1z"/>
</g>
</svg>
