<?xml version="1.0" standalone="no"?>
<!DOCTYPE svg PUBLIC "-//W3C//DTD SVG 20010904//EN"
 "http://www.w3.org/TR/2001/REC-SVG-20010904/DTD/svg10.dtd">
<svg version="1.0" xmlns="http://www.w3.org/2000/svg"
 width="700.000000pt" height="558.000000pt" viewBox="0 0 700.000000 558.000000"
 preserveAspectRatio="xMidYMid meet">

<g transform="translate(0.000000,558.000000) scale(0.100000,-0.100000)"
fill="#6D6B6D" stroke="none">
<path d="M3390 4611 c-13 -9 -15 -79 -15 -528 l0 -518 118 -3 117 -3 0 50 c0
27 4 51 10 53 5 2 163 2 350 0 l340 -3 0 -99 c0 -342 -191 -634 -506 -769
l-89 -39 -3 -122 -3 -122 33 7 c154 33 355 146 479 268 192 188 293 398 330
680 23 176 -17 390 -105 565 -142 282 -395 484 -711 567 -73 20 -323 31 -345
16z m320 -262 c131 -30 320 -151 413 -264 61 -74 111 -160 102 -175 -4 -6
-114 -10 -300 -10 -338 0 -311 -9 -310 105 1 39 2 134 3 213 2 161 -3 153 92
131z"/>
<path d="M3160 4566 c-224 -79 -419 -228 -550 -421 -60 -90 -90 -149 -128
-255 -38 -110 -52 -201 -52 -347 1 -575 471 -1051 1045 -1057 55 -1 108 2 118
6 16 7 17 40 17 487 l0 479 -32 3 c-18 2 -124 3 -235 1 l-203 -3 0 -119 0
-120 115 0 115 0 -2 -237 -3 -238 -44 3 c-101 6 -288 102 -397 204 -243 227
-323 611 -194 921 89 214 267 378 508 467 l32 12 0 119 c0 138 4 135 -110 95z"/>
<path d="M1124 2091 c-123 -32 -212 -164 -230 -341 -11 -109 47 -274 119 -335
101 -87 259 -84 362 7 59 52 89 112 110 220 16 80 16 91 1 168 -37 182 -125
277 -262 285 -38 2 -83 1 -100 -4z m156 -31 c46 -23 84 -78 101 -143 6 -27 9
-110 7 -213 -3 -166 -4 -170 -33 -223 -93 -169 -302 -131 -346 63 -7 32 -10
113 -8 211 4 144 6 164 27 205 30 57 59 89 97 106 44 19 110 17 155 -6z"/>
<path d="M3045 2092 c-131 -30 -217 -157 -232 -342 -13 -172 68 -333 193 -379
225 -85 420 107 401 394 -8 137 -75 258 -169 306 -41 21 -143 32 -193 21z
m161 -37 c32 -19 50 -39 71 -82 27 -55 28 -65 31 -223 3 -146 1 -173 -16 -223
-38 -106 -91 -150 -182 -150 -63 0 -107 20 -140 65 -41 56 -52 107 -57 258 -4
126 -2 153 15 208 11 35 31 78 43 97 52 76 154 98 235 50z"/>
<path d="M265 2066 c-61 -28 -119 -90 -152 -163 -29 -63 -43 -182 -31 -261 18
-112 96 -216 201 -266 57 -26 57 -26 117 -11 34 9 79 25 101 36 37 20 41 20
64 5 14 -9 25 -21 25 -26 0 -6 4 -10 10 -10 5 0 11 55 12 132 3 124 4 133 23
136 11 2 24 8 30 13 5 5 -32 9 -94 9 -65 0 -100 -4 -96 -10 3 -5 15 -10 26
-10 17 0 19 -7 19 -72 0 -124 -61 -191 -174 -192 -45 0 -52 4 -86 42 -126 142
-106 566 30 637 39 20 106 19 156 -4 43 -20 101 -82 110 -118 12 -47 24 -21
24 52 0 41 -2 75 -5 75 -2 0 -15 -5 -28 -11 -19 -9 -35 -6 -85 15 -76 32 -132
33 -197 2z"/>
<path d="M670 2081 c0 -5 10 -11 23 -13 l22 -3 3 -342 2 -343 -30 0 c-19 0
-30 -5 -30 -14 0 -17 202 -16 207 1 2 6 -6 13 -19 15 l-23 3 -3 338 c-2 332
-2 339 18 344 47 12 13 23 -75 23 -52 0 -95 -4 -95 -9z"/>
<path d="M1520 2080 c0 -5 14 -10 30 -10 l30 0 0 -345 0 -345 -29 0 c-37 0
-50 -18 -19 -25 44 -10 191 -1 196 13 2 8 -7 12 -27 12 l-31 0 0 175 0 175 59
0 c101 0 129 -44 131 -197 0 -76 29 -149 64 -162 52 -20 91 -22 111 -6 19 15
18 15 -15 10 -29 -5 -39 -2 -60 20 -22 23 -25 37 -31 143 -7 125 -24 180 -60
189 -27 7 -24 20 11 50 44 37 62 78 63 145 0 73 -19 103 -93 141 -51 26 -61
27 -192 27 -85 0 -138 -4 -138 -10z m287 -43 c18 -12 37 -34 43 -48 18 -42 16
-124 -4 -153 -26 -40 -86 -75 -135 -78 l-44 -3 1 155 c1 85 2 157 2 159 0 12
110 -14 137 -32z"/>
<path d="M2175 2074 c-42 -21 -112 -91 -140 -139 -58 -100 -69 -244 -25 -357
28 -76 104 -159 177 -194 52 -26 59 -27 110 -16 30 6 74 21 98 33 50 25 94 20
102 -11 14 -53 23 -7 23 114 l0 135 28 3 c15 2 26 8 25 13 -4 14 -193 19 -193
5 0 -5 12 -10 26 -10 l26 0 -3 -83 c-4 -74 -7 -88 -33 -121 -33 -44 -79 -66
-137 -66 -107 0 -173 134 -172 350 1 156 25 243 86 307 73 77 211 41 276 -71
15 -25 30 -43 34 -39 4 3 7 37 7 75 l0 69 -27 -15 c-25 -12 -32 -12 -81 10
-65 29 -161 32 -207 8z"/>
<path d="M2580 2080 c0 -5 9 -10 20 -10 20 0 20 -7 20 -335 0 -184 1 -338 3
-342 1 -5 -11 -9 -26 -11 -16 -2 -27 -8 -24 -15 4 -12 167 -20 194 -10 18 7 6
23 -18 23 -18 0 -19 10 -19 345 0 338 0 345 20 345 11 0 20 5 20 10 0 6 -38
10 -95 10 -57 0 -95 -4 -95 -10z"/>
<path d="M4320 2080 c0 -5 14 -10 30 -10 l30 0 0 -335 c0 -184 1 -338 3 -342
1 -5 -23 -9 -54 -11 l-57 -3 -16 43 c-8 24 -38 108 -67 188 -63 177 -136 383
-153 429 -7 19 -17 36 -22 38 -5 2 -22 -33 -37 -78 -25 -70 -27 -82 -14 -92
19 -15 111 -283 102 -297 -8 -13 -192 -13 -200 0 -4 6 2 36 13 68 11 31 23 73
26 92 7 37 -46 -98 -111 -282 -36 -101 -40 -108 -65 -108 -32 0 -46 -16 -21
-24 31 -8 117 0 121 12 2 7 -7 12 -23 12 -22 0 -26 3 -20 18 4 9 18 47 31 85
40 114 29 107 153 107 78 0 110 -4 114 -12 37 -89 77 -190 77 -194 0 -2 -21
-4 -46 -4 -32 0 -44 -4 -42 -12 4 -10 60 -13 238 -13 178 0 234 3 237 13 3 8
-7 12 -31 12 l-36 0 0 175 0 175 58 0 c97 0 132 -45 132 -173 0 -83 15 -130
55 -167 22 -20 37 -25 85 -26 32 -1 62 -4 68 -8 15 -9 123 5 116 15 -3 5 -14
9 -25 9 -18 0 -19 9 -19 283 1 202 4 277 11 264 6 -10 49 -127 96 -260 47
-133 90 -257 97 -275 6 -19 16 -34 21 -35 6 -1 21 32 35 73 128 377 176 508
182 504 4 -3 8 -129 8 -280 l0 -274 -31 0 c-20 0 -29 -4 -27 -12 5 -14 198
-22 276 -12 46 6 56 21 18 26 l-23 3 35 98 35 97 116 0 117 0 31 -82 c18 -46
35 -91 39 -100 5 -15 0 -18 -36 -18 -29 0 -40 -4 -37 -12 3 -10 43 -13 157
-13 114 0 154 3 158 13 2 8 -7 12 -27 12 l-31 0 0 315 c0 173 3 315 8 315 4 0
99 -145 212 -322 113 -177 211 -323 218 -326 9 -3 12 78 12 353 l0 356 63 -3
62 -3 3 -342 2 -343 -25 0 c-14 0 -25 -6 -25 -12 0 -16 182 -18 190 -3 3 6 -5
11 -17 13 l-23 3 0 345 c0 337 0 344 20 344 11 0 20 5 20 10 0 6 -63 10 -170
10 -107 0 -170 -4 -170 -10 0 -5 11 -10 25 -10 l25 0 0 -245 c0 -189 -3 -245
-12 -245 -7 0 -35 35 -61 78 -26 42 -100 157 -164 255 l-115 177 -76 0 c-46 0
-72 -4 -66 -9 5 -5 18 -11 29 -13 20 -3 20 -11 20 -343 l0 -340 -26 -3 c-28
-3 -28 -3 -202 483 -41 115 -79 211 -85 213 -5 1 -19 -23 -30 -55 -22 -62 -85
-244 -152 -438 -79 -229 -66 -205 -116 -205 l-44 0 0 345 0 345 25 0 c14 0 25
5 25 10 0 6 -30 10 -69 10 l-68 0 -27 -77 c-15 -43 -34 -94 -41 -113 -7 -19
-35 -96 -61 -170 -26 -74 -52 -146 -59 -159 l-13 -25 -14 30 c-8 16 -50 130
-92 254 -42 124 -81 232 -85 240 -10 18 -151 28 -151 10 0 -5 11 -10 25 -10
l25 0 0 -344 0 -344 -70 0 c-93 0 -102 11 -107 151 -5 134 -8 145 -49 184
l-35 32 29 15 c42 22 57 59 57 145 0 92 -15 118 -91 156 -47 23 -61 25 -192
25 -88 0 -142 -4 -142 -10z m278 -30 c32 -14 47 -29 58 -57 21 -49 14 -134
-12 -171 -24 -33 -98 -72 -136 -72 l-28 0 0 160 0 160 38 0 c20 0 56 -9 80
-20z m1263 -285 c27 -77 47 -146 44 -152 -3 -9 -34 -13 -106 -13 l-101 0 6 33
c5 25 59 201 81 265 11 32 31 -2 76 -133z"/>
</g>
</svg>
