<?xml version="1.0" standalone="no"?>
<!DOCTYPE svg PUBLIC "-//W3C//DTD SVG 20010904//EN"
 "http://www.w3.org/TR/2001/REC-SVG-20010904/DTD/svg10.dtd">
<svg version="1.0" xmlns="http://www.w3.org/2000/svg"
 width="768.000000pt" height="257.000000pt" viewBox="0 0 768.000000 257.000000"
 preserveAspectRatio="xMidYMid meet">

<g transform="translate(0.000000,257.000000) scale(0.100000,-0.100000)"
fill="#6D6B6D" stroke="none">
<path d="M1653 2555 c-18 -7 -76 -55 -130 -105 -53 -51 -107 -97 -118 -102
-16 -7 -91 1 -265 27 -203 31 -261 36 -359 33 -145 -5 -199 -26 -270 -104 -51
-56 -76 -111 -87 -196 -8 -57 -10 -58 -113 -21 -52 18 -104 28 -163 31 -86 4
-87 4 -118 -26 -73 -74 -5 -173 178 -260 l94 -44 -6 -59 c-6 -54 -5 -60 21
-88 19 -21 46 -35 83 -44 l55 -13 8 -50 c5 -27 9 -119 10 -204 0 -126 -6 -200
-33 -390 -65 -462 -41 -664 96 -790 123 -114 313 -150 680 -130 436 23 561 23
830 5 339 -23 407 -12 528 84 122 98 146 214 111 546 -23 212 -30 472 -16 609
6 65 26 214 43 330 39 268 44 470 13 556 -27 74 -93 140 -168 169 -83 31 -195
35 -417 17 -108 -9 -235 -16 -283 -16 l-88 0 7 99 c7 98 6 100 -19 125 -29 29
-57 32 -104 11z m68 -52 c17 -44 5 -172 -21 -224 -33 -65 -112 -135 -204 -179
-76 -37 -206 -75 -229 -67 -5 1 24 23 67 47 42 24 83 54 92 67 l15 24 -48 -24
c-61 -31 -117 -47 -143 -40 -35 9 -22 52 26 88 23 16 70 51 105 77 35 25 107
86 159 135 142 134 162 144 181 96z m-586 -218 c77 -10 145 -22 150 -27 7 -6
-4 -21 -30 -44 -103 -87 -229 -124 -360 -104 -124 19 -173 23 -199 16 -45 -11
-28 -26 28 -26 30 0 67 -5 83 -11 l28 -11 -34 -15 c-20 -8 -85 -17 -158 -20
l-123 -6 0 50 c0 205 150 253 615 198z m1370 -46 c53 -19 107 -75 124 -129 23
-76 16 -233 -24 -495 -48 -315 -54 -502 -30 -870 29 -446 12 -525 -128 -585
-72 -31 -167 -35 -478 -20 -330 16 -338 19 -329 120 5 59 54 93 135 92 66 -1
88 -10 165 -72 98 -78 186 -118 131 -59 -61 66 -43 179 28 179 31 0 56 -16
135 -87 35 -32 72 -55 92 -59 56 -10 57 6 2 35 -186 97 -113 352 96 338 64 -4
65 -6 -9 46 -18 13 -25 27 -25 51 0 39 20 59 75 76 60 19 61 26 10 46 -82 31
-89 66 -51 269 34 179 11 324 -64 406 l-40 44 25 -45 c30 -57 49 -172 43 -271
-3 -57 -12 -91 -35 -140 -37 -76 -84 -135 -101 -125 -15 9 -17 833 -2 887 6
23 32 56 70 94 34 31 59 62 58 67 -5 14 -531 14 -535 1 -2 -6 23 -37 57 -68
38 -38 64 -71 70 -94 6 -22 10 -222 9 -501 0 -492 -4 -535 -44 -535 -43 0 -61
132 -24 179 24 31 12 35 -19 6 -31 -29 -49 -67 -68 -146 -24 -97 -39 -124 -70
-124 -14 0 -33 4 -42 9 -15 8 -17 2 -17 -59 0 -53 -4 -73 -19 -89 -43 -48 -63
-19 -68 102 l-5 87 31 20 c33 20 105 90 93 90 -4 0 -26 -17 -50 -38 -41 -38
-77 -58 -77 -44 0 14 15 28 52 51 49 29 73 60 98 129 12 31 31 67 42 80 27 28
9 29 -26 1 -24 -19 -27 -19 -33 -3 -4 10 2 33 14 56 15 27 18 38 8 38 -7 0
-16 -8 -19 -17 -5 -13 -9 -14 -19 -4 -9 10 -6 18 17 38 l30 25 -33 -7 c-33 -7
-50 3 -51 32 0 6 38 21 85 34 124 32 128 37 82 92 -20 25 -37 52 -37 60 0 18
-25 38 -72 60 -21 9 -38 21 -38 26 0 17 -83 33 -135 27 -60 -7 -110 -24 -150
-50 -65 -42 -160 -163 -129 -163 12 0 171 -69 184 -80 2 -2 -2 -8 -10 -13 -10
-6 -17 -4 -23 5 -15 28 -25 15 -17 -21 8 -34 4 -64 -7 -64 -3 0 -16 9 -30 20
-34 26 -41 18 -14 -16 11 -15 21 -36 21 -47 0 -18 -2 -19 -17 -5 -35 30 -47
31 -25 4 15 -19 22 -42 22 -70 0 -63 36 -125 95 -164 69 -46 70 -62 1 -23 -31
18 -63 31 -71 29 -8 -2 16 -21 54 -43 l69 -40 1 -101 c2 -133 -5 -141 -92 -94
-57 30 -60 31 -39 8 42 -47 24 -88 -40 -88 -83 0 -132 51 -132 138 0 72 25 98
95 95 61 -1 53 13 -14 26 -26 4 -54 14 -63 22 -17 14 -17 36 2 194 l6 50 -26
-50 c-31 -62 -77 -111 -112 -119 -33 -9 -109 27 -131 61 -22 33 -19 97 6 158
l21 50 -23 -29 c-64 -85 -105 -100 -175 -64 -66 34 -92 82 -92 171 0 38 5 77
11 89 18 34 1 32 -20 -3 -30 -49 -35 -104 -16 -196 13 -63 14 -90 6 -121 -13
-46 -43 -88 -71 -97 -32 -10 -24 -20 28 -36 l47 -14 1 -95 c1 -71 7 -108 23
-148 39 -97 22 -169 -57 -239 l-47 -43 75 35 c41 19 101 40 132 46 49 10 61 9
95 -7 87 -43 30 -103 -121 -129 -59 -10 -25 -25 55 -25 43 0 97 9 150 25 222
67 280 78 342 67 69 -13 144 -54 159 -87 14 -31 3 -71 -25 -90 -34 -22 -109
-33 -318 -45 -370 -23 -528 25 -606 180 -61 121 -62 239 -8 602 34 228 39 344
22 523 -8 83 -12 155 -10 161 2 7 32 22 66 34 34 13 85 36 113 51 l50 29 28
-29 c23 -24 29 -40 32 -92 7 -93 11 -105 45 -144 22 -25 39 -35 60 -35 39 0
38 26 -1 48 -47 27 -73 96 -50 132 7 12 16 13 55 2 68 -18 139 -15 190 9 43
20 125 98 125 119 0 5 7 10 15 10 19 0 19 -29 0 -54 -18 -23 -11 -52 18 -83
23 -25 57 -31 57 -10 0 8 -9 22 -20 32 -25 23 -25 29 1 65 l22 28 -22 30 c-39
56 -30 66 71 75 91 8 186 75 229 160 18 35 21 51 15 110 -6 64 -5 71 20 100
39 47 61 56 144 58 41 0 138 7 215 14 170 16 414 13 470 -6z m-885 -145 c23
-61 -2 -136 -63 -187 -73 -60 -182 -89 -252 -65 -49 16 -64 49 -47 105 18 58
22 61 107 78 47 9 111 32 155 55 41 21 78 39 83 39 4 1 12 -11 17 -25z m-1330
-40 c69 -19 156 -38 193 -41 37 -3 64 -10 60 -14 -5 -5 -44 -15 -87 -24 -90
-17 -99 -21 -61 -31 27 -7 104 -1 179 12 31 6 38 4 34 -7 -3 -9 -33 -19 -78
-26 -99 -17 -103 -19 -46 -28 45 -7 76 -2 179 32 11 3 17 0 17 -10 0 -25 -108
-116 -184 -154 -39 -20 -65 -38 -58 -40 26 -9 200 86 261 143 l61 56 0 -31 c0
-17 10 -51 22 -75 30 -63 17 -88 -65 -126 -138 -65 -266 -82 -339 -44 -82 42
-50 138 55 165 26 6 52 17 58 25 14 17 10 17 -75 0 -38 -8 -83 -12 -100 -9
-52 10 -185 82 -232 125 -39 36 -45 46 -42 77 2 26 10 39 28 48 40 20 86 15
220 -23z m708 -4 c32 -31 58 -92 47 -110 -11 -18 -53 20 -79 72 -36 73 -21 91
32 38z m-164 -42 c9 -35 7 -101 -4 -118 -14 -23 -31 1 -37 53 -8 65 26 118 41
65z m1446 -11 c0 -5 -13 -25 -30 -43 -16 -19 -34 -52 -40 -74 -8 -28 -10 -193
-8 -513 3 -466 3 -473 26 -529 13 -32 39 -80 58 -108 19 -27 34 -55 34 -63 0
-9 -26 -17 -75 -26 -77 -13 -145 -43 -265 -117 -150 -94 -313 -137 -515 -138
-158 0 -261 17 -386 65 -126 49 -260 144 -295 211 -21 41 -18 100 9 138 38 57
72 75 135 74 97 0 157 -43 169 -119 5 -29 0 -39 -25 -65 -35 -34 -72 -39 -129
-15 -78 33 -84 -6 -10 -65 65 -53 141 -91 237 -122 65 -20 95 -23 220 -22 129
0 154 3 225 27 169 56 295 158 361 293 l39 78 3 490 c2 270 0 506 -3 523 -3
18 -21 53 -40 78 -19 25 -35 47 -35 49 0 1 77 3 170 3 100 0 170 -4 170 -10z
m-1283 -124 c3 -7 -7 -19 -21 -28 -19 -13 -34 -15 -68 -8 l-43 9 55 21 c59 22
72 23 77 6z m183 -52 c0 -15 -81 -82 -119 -98 -60 -26 -191 -16 -191 15 0 4
39 13 86 19 55 8 108 23 147 42 69 33 77 35 77 22z m70 -51 c0 -32 -84 -115
-142 -140 -58 -25 -126 -24 -191 4 -65 27 -48 43 51 48 96 5 158 26 220 78 43
35 62 38 62 10z"/>
<path d="M1591 2364 c-18 -20 -30 -39 -27 -42 7 -7 44 26 58 51 17 33 1 29
-31 -9z"/>
<path d="M1563 2244 c-44 -26 -55 -44 -28 -44 17 0 96 69 80 70 -5 0 -29 -12
-52 -26z"/>
<path d="M945 2190 c-28 -11 -49 -37 -36 -44 11 -7 86 27 96 44 7 12 -31 12
-60 0z"/>
<path d="M1461 2004 c-19 -8 -32 -17 -29 -20 8 -7 89 13 101 25 16 16 -31 13
-72 -5z"/>
<path d="M1468 1954 c-66 -20 -74 -38 -14 -32 48 6 71 18 65 36 -3 6 -23 4
-51 -4z"/>
<path d="M156 1977 c10 -27 67 -40 116 -26 l43 13 -40 7 c-119 22 -126 22
-119 6z"/>
<path d="M575 1724 c-34 -20 -36 -24 -17 -24 28 0 82 27 82 40 0 16 -22 10
-65 -16z"/>
<path d="M6187 2172 c-26 -28 -21 -40 28 -74 50 -35 54 -55 15 -75 -19 -10
-21 -13 -7 -13 35 0 57 20 57 50 0 24 -8 35 -41 55 -26 17 -39 32 -37 43 5 26
44 27 62 0 l16 -22 0 24 c0 22 -5 25 -38 28 -27 1 -44 -3 -55 -16z"/>
<path d="M6328 2183 c8 -3 12 -30 12 -83 0 -53 -4 -80 -12 -83 -7 -3 5 -6 27
-6 30 -1 36 2 27 11 -7 7 -12 40 -12 78 0 38 5 71 12 78 9 9 3 12 -27 11 -22
0 -34 -3 -27 -6z"/>
<path d="M6438 2178 c7 -7 12 -40 12 -78 0 -38 -5 -71 -12 -78 -9 -9 -5 -12
18 -12 19 0 25 3 16 9 -9 5 -12 27 -10 72 l3 63 50 -73 50 -73 3 83 c2 51 8
86 15 91 7 5 0 7 -18 7 -16 0 -24 -3 -17 -6 7 -3 12 -25 12 -61 l0 -56 -42 62
c-33 47 -49 61 -67 62 -20 0 -22 -3 -13 -12z"/>
<path d="M6651 2171 c-45 -45 -29 -143 24 -157 29 -7 75 9 75 26 0 7 -8 5 -21
-3 -30 -21 -57 -10 -70 30 -26 79 33 151 75 91 16 -22 16 -22 16 -1 0 37 -67
46 -99 14z"/>
<path d="M6808 2183 c16 -6 17 -144 0 -161 -9 -9 2 -12 50 -12 34 0 62 4 62 9
0 5 3 18 6 28 5 13 2 12 -10 -4 -10 -13 -28 -23 -42 -23 -21 0 -24 4 -24 40 0
32 4 40 18 40 10 0 23 -5 30 -12 9 -9 12 -6 12 17 0 23 -3 26 -12 17 -7 -7
-20 -12 -30 -12 -14 0 -18 8 -18 35 0 30 3 35 25 35 13 0 29 -8 34 -17 9 -16
10 -16 11 5 0 21 -4 22 -62 21 -35 0 -57 -3 -50 -6z"/>
<path d="M7090 2174 c-19 -10 -21 -14 -7 -14 14 0 17 -10 17 -63 0 -36 -5 -68
-12 -75 -9 -9 -3 -12 28 -11 21 0 33 3 27 6 -9 3 -13 31 -13 89 0 46 -3 84 -7
83 -5 -1 -19 -7 -33 -15z"/>
<path d="M7197 2184 c-13 -14 6 -24 44 -24 21 0 39 -2 39 -5 0 -2 -16 -33 -35
-68 -38 -69 -40 -77 -25 -77 8 0 90 161 90 176 0 7 -106 4 -113 -2z"/>
<path d="M7377 2172 c-33 -37 -14 -102 30 -102 l25 0 -27 -37 c-25 -35 -23
-34 19 9 36 37 46 54 46 81 0 58 -58 88 -93 49z m58 -42 c0 -38 -3 -45 -20
-45 -15 0 -21 8 -23 33 -4 45 4 64 25 60 14 -3 18 -13 18 -48z"/>
<path d="M7510 2175 c0 -11 12 -15 45 -15 l45 0 -35 -70 c-19 -38 -35 -72 -35
-75 0 -10 18 -5 23 8 3 6 21 47 41 90 l35 77 -59 0 c-47 0 -60 -3 -60 -15z"/>
<path d="M6171 2043 c-1 -25 2 -31 14 -27 10 4 12 10 7 18 -5 6 -12 18 -15 26
-3 8 -6 1 -6 -17z"/>
<path d="M3203 2007 c-7 -11 -5 -12 47 -28 l45 -14 3 -430 c3 -481 2 -498 -53
-521 -19 -8 -48 -14 -65 -14 -20 0 -30 -5 -30 -15 0 -12 13 -15 58 -15 92 1
153 38 188 115 5 11 11 214 14 450 l5 430 48 14 c86 26 57 36 -104 36 -83 0
-153 -4 -156 -8z"/>
<path d="M4135 2010 c-16 -4 -47 -8 -67 -9 -47 -1 -55 -31 -9 -31 16 0 34 -6
40 -14 8 -9 11 -114 9 -366 -3 -384 0 -362 -60 -375 -61 -12 -21 -20 107 -20
86 0 134 4 132 10 -2 6 -14 11 -28 13 -45 6 -49 23 -48 216 0 113 5 194 12
216 23 67 120 102 176 64 44 -31 51 -69 51 -272 0 -201 -4 -218 -49 -224 -14
-2 -26 -7 -28 -13 -2 -6 46 -10 132 -10 128 0 168 8 108 20 -60 13 -58 5 -63
231 -5 205 -6 210 -32 255 -37 62 -80 82 -164 77 -53 -3 -70 -9 -104 -36 l-40
-33 0 156 c0 173 4 165 -75 145z"/>
<path d="M5886 1895 c-21 -67 -57 -112 -99 -123 -18 -5 -33 -16 -35 -25 -3
-14 4 -17 37 -17 l41 0 0 -220 c0 -241 6 -274 56 -306 54 -36 184 -15 192 30
3 15 0 17 -14 11 -44 -19 -89 -17 -109 5 -19 20 -20 39 -23 251 l-3 229 70 0
c64 0 71 2 71 20 0 18 -7 20 -70 20 l-70 0 0 90 c0 107 -17 121 -44 35z"/>
<path d="M3698 1778 c-54 -14 -121 -78 -148 -140 -28 -64 -37 -172 -21 -250
31 -147 158 -234 290 -198 61 16 132 90 157 161 26 77 24 205 -5 281 -36 93
-127 160 -211 157 -14 -1 -42 -6 -62 -11z m106 -32 c23 -10 40 -27 56 -60 42
-88 43 -312 1 -399 -40 -82 -132 -100 -185 -36 -39 46 -51 101 -50 239 0 113
2 130 25 181 19 40 35 60 60 72 42 20 51 21 93 3z"/>
<path d="M4733 1772 c-74 -16 -96 -32 -45 -32 62 0 63 -1 60 -264 -3 -259 -1
-248 -60 -261 -61 -12 -21 -20 107 -20 86 0 134 4 132 10 -2 6 -14 12 -28 13
-48 7 -49 13 -49 214 0 200 6 234 49 272 12 11 41 21 69 24 40 3 53 0 76 -19
15 -14 31 -41 36 -64 12 -50 13 -385 1 -403 -4 -7 -21 -16 -36 -20 -64 -18
-31 -27 95 -27 82 0 129 4 127 10 -2 6 -14 12 -28 13 -47 7 -49 15 -49 186 0
248 -14 302 -90 354 -24 16 -47 22 -86 22 -66 0 -100 -13 -141 -52 l-31 -30
-7 46 c-4 25 -12 45 -19 45 -6 -1 -44 -9 -83 -17z"/>
<path d="M5660 1776 c0 -24 -16 -27 -54 -11 -51 21 -132 19 -180 -5 -57 -28
-79 -63 -84 -130 -5 -85 14 -108 145 -170 132 -63 153 -81 153 -130 0 -44 -27
-82 -70 -100 -43 -18 -116 -8 -147 21 -28 27 -63 90 -63 114 0 8 -7 15 -15 15
-12 0 -15 -18 -15 -100 0 -100 8 -121 31 -77 6 12 13 23 14 25 2 2 20 -5 42
-16 111 -57 241 -23 292 75 6 12 11 45 11 73 0 78 -23 104 -149 162 -129 61
-151 79 -151 128 0 95 140 135 204 59 14 -16 28 -45 32 -64 3 -20 12 -35 20
-35 11 0 14 20 14 90 0 73 -3 90 -15 90 -8 0 -15 -6 -15 -14z"/>
<path d="M6278 1778 c-54 -14 -121 -78 -148 -140 -28 -64 -37 -172 -21 -250
42 -198 251 -274 382 -138 62 63 84 128 83 240 -2 111 -28 183 -88 238 -62 57
-125 72 -208 50z m106 -32 c23 -10 40 -27 55 -60 44 -90 44 -311 1 -401 -39
-80 -131 -97 -184 -34 -39 46 -51 101 -50 239 0 113 2 130 25 181 19 40 35 60
60 72 42 20 51 21 93 3z"/>
<path d="M6700 1774 c-25 -7 -55 -13 -67 -13 -34 -1 -28 -21 6 -21 59 0 61 -8
61 -264 0 -252 0 -251 -54 -258 -16 -1 -31 -7 -33 -13 -2 -6 46 -10 132 -10
130 0 166 7 108 21 -53 13 -53 13 -53 224 0 189 1 198 23 231 30 45 63 61 115
56 56 -6 78 -28 91 -88 12 -53 15 -348 5 -387 -4 -14 -17 -25 -37 -30 -67 -17
-34 -27 93 -27 80 0 129 4 127 10 -2 5 -18 12 -36 16 -17 4 -35 10 -39 14 -4
3 -9 102 -12 218 -6 219 -11 247 -51 283 -39 35 -65 44 -124 44 -61 0 -97 -14
-134 -54 -28 -30 -41 -21 -41 32 0 36 -6 38 -80 16z"/>
<path d="M7610 1776 c0 -24 -16 -27 -54 -11 -54 23 -135 19 -186 -8 -52 -27
-80 -75 -80 -137 0 -76 24 -102 153 -164 121 -57 147 -81 147 -131 0 -83 -106
-131 -196 -89 -37 18 -71 65 -80 113 -4 17 -13 31 -20 31 -11 0 -14 -22 -14
-100 0 -100 8 -121 31 -77 6 12 13 23 14 25 2 2 20 -5 42 -16 82 -42 174 -36
242 15 40 31 61 77 61 135 0 73 -26 101 -147 159 -132 62 -153 80 -153 129 0
47 22 77 69 91 80 24 138 -8 162 -88 7 -24 18 -43 26 -43 10 0 13 21 13 90 0
73 -3 90 -15 90 -8 0 -15 -6 -15 -14z"/>
<path d="M3591 932 c-20 -20 -29 -41 -34 -80 -8 -65 -12 -72 -43 -72 -15 0
-24 -6 -24 -15 0 -10 10 -15 30 -15 l30 0 0 -168 c0 -174 -4 -192 -42 -192
-10 0 -18 -3 -18 -7 0 -5 43 -8 95 -8 95 0 121 7 65 19 l-30 6 0 175 0 175 45
0 c33 0 45 4 45 15 0 11 -12 15 -45 15 l-45 0 0 61 c0 33 5 69 10 80 12 21 59
26 61 7 1 -7 2 -17 4 -23 1 -5 3 -16 3 -23 3 -24 47 -9 50 16 6 39 -24 62 -80
62 -41 0 -54 -5 -77 -28z"/>
<path d="M4345 946 c-49 -13 -49 -15 0 -31 13 -4 15 -41 15 -253 0 -257 -2
-272 -42 -272 -10 0 -18 -3 -18 -7 0 -5 43 -8 95 -8 52 0 95 3 95 8 0 4 -8 7
-18 7 -40 0 -42 14 -42 297 0 308 9 282 -85 259z"/>
<path d="M4914 941 c-57 -26 -104 -99 -104 -161 0 -36 0 -36 -42 -10 -70 42
-182 16 -215 -50 -30 -58 -6 -137 49 -166 l31 -16 -40 -18 c-48 -21 -59 -50
-31 -85 11 -14 15 -25 10 -25 -5 0 -21 -11 -36 -25 -50 -46 -24 -130 50 -161
43 -18 155 -18 197 0 46 20 78 58 84 103 4 32 0 45 -21 70 -28 33 -69 46 -188
58 -89 10 -89 42 0 65 139 34 166 64 167 189 1 68 6 95 23 128 34 65 102 104
102 57 0 -17 31 -19 48 -2 18 18 14 46 -7 58 -26 13 -29 13 -77 -9z m-175
-197 c26 -33 29 -118 5 -152 -57 -82 -157 -16 -139 92 13 82 90 116 134 60z
m26 -368 c110 -47 30 -156 -104 -143 -91 10 -147 72 -105 118 10 12 28 25 39
30 33 13 133 10 170 -5z"/>
<path d="M3870 940 c0 -5 9 -10 19 -10 48 0 51 -16 51 -261 0 -140 -4 -238
-10 -250 -6 -11 -21 -19 -35 -19 -14 0 -25 -4 -25 -10 0 -6 68 -10 185 -10
l184 0 6 38 c4 20 9 49 11 65 8 40 -8 33 -31 -15 -25 -52 -54 -68 -123 -68
-91 0 -92 2 -92 141 l0 120 78 -3 77 -3 10 -32 c16 -56 25 -37 25 52 0 89 -9
108 -25 53 l-10 -33 -77 -3 -78 -3 0 121 0 120 70 0 c38 0 80 -5 94 -11 23
-11 56 -62 56 -88 0 -6 5 -11 11 -11 8 0 10 13 5 38 -3 20 -6 49 -6 65 l0 27
-185 0 c-117 0 -185 -4 -185 -10z"/>
<path d="M4948 786 c-58 -9 -79 -26 -34 -26 13 0 27 -7 30 -16 3 -9 6 -88 6
-176 l0 -160 -30 -11 c-16 -6 -30 -14 -30 -17 0 -6 180 -4 186 3 3 2 -9 7 -26
10 l-30 6 0 195 c0 107 -3 196 -7 198 -5 2 -34 0 -65 -6z"/>
<path d="M5165 787 c-65 -14 -73 -20 -40 -26 l30 -6 3 -169 c3 -175 -2 -196
-39 -196 -11 0 -19 -3 -19 -7 0 -5 41 -8 90 -8 50 0 90 2 90 5 0 3 -10 10 -22
15 -22 10 -23 15 -26 158 -2 145 -2 148 22 172 18 18 36 25 65 25 65 0 72 -19
69 -196 -3 -144 -4 -149 -25 -159 -13 -5 -23 -12 -23 -15 0 -3 41 -5 90 -5 50
0 90 3 90 8 0 4 -8 7 -18 7 -37 0 -42 20 -42 157 0 193 -26 243 -129 243 -31
0 -49 -7 -76 -31 -35 -31 -35 -31 -35 -8 0 39 -11 46 -55 36z"/>
<path d="M3223 768 c-57 -41 -78 -91 -78 -188 0 -74 3 -91 27 -131 77 -131
251 -94 288 62 25 104 -13 229 -80 264 -44 23 -119 19 -157 -7z m135 -21 c44
-47 55 -233 18 -306 -29 -54 -87 -68 -123 -29 -59 64 -57 273 3 339 24 27 75
25 102 -4z"/>
</g>
</svg>
