<?xml version="1.0" standalone="no"?>
<!DOCTYPE svg PUBLIC "-//W3C//DTD SVG 20010904//EN"
 "http://www.w3.org/TR/2001/REC-SVG-20010904/DTD/svg10.dtd">
<svg version="1.0" xmlns="http://www.w3.org/2000/svg"
 width="636.000000pt" height="289.000000pt" viewBox="0 0 636.000000 289.000000"
 preserveAspectRatio="xMidYMid meet">

<g transform="translate(0.000000,289.000000) scale(0.100000,-0.100000)"
fill="#6D6B6D" stroke="none">
<path d="M940 1795 l-255 -255 83 -83 82 -82 -70 -70 -70 -70 255 -255 255
-255 90 90 90 90 -163 165 c-89 91 -198 202 -242 248 l-80 82 235 235 235 235
-90 90 c-49 49 -92 90 -95 90 -3 0 -120 -115 -260 -255z"/>
<path d="M390 1380 l0 -650 135 0 135 0 0 650 0 650 -135 0 -135 0 0 -650z"/>
<path d="M1440 1380 l0 -650 135 0 135 0 0 650 0 650 -135 0 -135 0 0 -650z"/>
<path d="M1770 1910 l0 -120 283 2 282 3 3 118 3 117 -286 0 -285 0 0 -120z"/>
<path d="M2410 1380 l0 -650 140 0 140 0 2 544 3 545 290 -493 c185 -316 294
-492 302 -489 10 4 13 -10 13 -51 l0 -56 140 0 140 0 -2 648 -3 647 -137 3
-138 3 -2 -540 -3 -539 -281 477 c-240 409 -283 476 -302 474 -19 -2 -21 3
-24 60 l-3 62 -137 3 -138 3 0 -651z"/>
<path d="M3670 1910 l0 -120 372 0 373 0 -343 -343 -342 -342 52 -53 53 -52
-83 0 -82 0 0 -115 0 -115 500 0 500 0 0 115 0 115 -352 2 -353 3 320 322 320
323 -70 70 -69 70 102 0 102 0 0 120 0 120 -500 0 -500 0 0 -120z"/>
<path d="M5195 2014 c-246 -54 -447 -247 -510 -489 -19 -75 -19 -211 0 -293
53 -224 237 -412 469 -479 96 -28 259 -32 351 -8 239 62 429 246 491 476 27
99 22 244 -10 345 -65 204 -243 375 -456 439 -80 23 -249 28 -335 9z m229
-249 c128 -27 220 -101 280 -225 28 -59 31 -74 31 -160 -1 -131 -25 -192 -114
-281 -89 -89 -149 -113 -282 -114 -90 0 -99 2 -171 38 -247 122 -300 436 -107
633 58 59 120 93 199 110 73 16 83 16 164 -1z"/>
<path d="M1770 1370 l0 -120 255 0 255 0 0 120 0 120 -255 0 -255 0 0 -120z"/>
<path d="M1770 875 l0 -115 285 0 285 0 0 115 0 115 -285 0 -285 0 0 -115z"/>
</g>
</svg>
