<?xml version="1.0" standalone="no"?>
<!DOCTYPE svg PUBLIC "-//W3C//DTD SVG 20010904//EN"
 "http://www.w3.org/TR/2001/REC-SVG-20010904/DTD/svg10.dtd">
<svg version="1.0" xmlns="http://www.w3.org/2000/svg"
 width="2990.000000pt" height="1080.000000pt" viewBox="0 0 2990.000000 1080.000000"
 preserveAspectRatio="xMidYMid meet">

<g transform="translate(0.000000,1080.000000) scale(0.100000,-0.100000)"
fill="#6D6B6D" stroke="none">
<path d="M3983 7245 c-17 -12 -23 -26 -23 -55 0 -63 22 -71 182 -69 l133 1 3
-1122 2 -1122 -146 4 c-135 3 -147 2 -160 -16 -19 -27 -18 -81 3 -101 14 -15
30 -16 110 -10 150 11 378 12 507 2 103 -8 120 -7 134 7 25 24 21 85 -7 107
-21 17 -36 18 -157 12 -110 -5 -134 -4 -139 8 -3 8 -4 426 -3 929 l3 915 99
-270 c54 -148 220 -603 368 -1010 149 -407 277 -746 286 -752 9 -7 30 -13 47
-13 17 0 38 6 47 13 9 6 186 460 393 1007 208 547 379 997 381 999 2 2 4 -409
4 -913 l0 -918 -146 4 c-135 3 -147 2 -160 -16 -20 -28 -18 -80 5 -100 17 -16
34 -16 217 -5 193 11 649 7 777 -7 47 -6 61 -4 77 11 24 22 26 71 4 100 -14
19 -25 20 -160 17 l-144 -4 2 1123 3 1122 137 -2 c126 -1 139 0 158 19 26 26
26 74 -1 101 -17 17 -29 20 -57 15 -21 -3 -174 -9 -342 -12 -225 -4 -310 -9
-326 -19 -11 -7 -26 -32 -33 -56 -9 -31 -581 -1537 -646 -1701 -11 -28 -21
-21 -34 22 -39 132 -625 1718 -639 1731 -15 15 -58 18 -337 23 -176 3 -338 8
-360 12 -28 3 -47 0 -62 -11z"/>
<path d="M8750 7253 c-266 -3 -276 -4 -292 -24 -25 -30 -22 -66 7 -95 23 -23
32 -25 73 -20 26 4 83 7 127 8 l80 2 3 -1123 2 -1123 -136 4 c-132 3 -136 2
-155 -21 -24 -29 -24 -62 -1 -91 18 -22 21 -22 133 -13 143 12 640 13 774 1
55 -5 110 -6 122 -3 48 11 44 115 -6 128 -11 3 -75 3 -141 0 l-120 -6 0 1164
c0 919 -3 1169 -13 1189 -14 29 23 27 -457 23z"/>
<path d="M10040 7253 c-266 -3 -276 -4 -292 -24 -25 -30 -22 -66 7 -95 23 -23
32 -25 73 -20 26 4 83 7 127 8 l80 2 3 -1123 2 -1123 -136 4 c-132 3 -136 2
-155 -21 -24 -29 -24 -62 -1 -91 18 -22 21 -22 133 -13 144 12 639 13 783 1
96 -8 110 -7 127 8 23 20 25 72 5 100 -13 17 -25 19 -150 16 l-136 -4 0 1164
c0 919 -3 1168 -13 1188 -14 29 23 27 -457 23z"/>
<path d="M15491 7241 c-27 -27 -27 -75 -1 -101 19 -19 32 -20 158 -19 l137 2
3 -1123 2 -1123 -134 6 c-125 6 -135 5 -160 -14 -32 -25 -36 -77 -7 -103 17
-16 31 -16 138 -8 155 12 686 12 838 -1 117 -9 119 -9 137 13 23 29 23 62 -1
91 -19 23 -24 24 -163 24 l-143 0 0 550 0 550 418 3 417 2 0 -556 0 -557 -134
6 c-125 6 -135 5 -160 -14 -32 -25 -36 -77 -7 -103 17 -16 31 -16 138 -8 155
12 686 12 838 -1 117 -9 119 -9 137 13 23 29 23 62 -1 91 -19 23 -24 24 -163
24 l-143 0 0 1119 0 1119 142 -2 c134 -1 143 0 162 21 27 28 27 72 1 98 -19
19 -28 20 -103 13 -108 -10 -810 -10 -909 0 -70 7 -79 6 -98 -13 -26 -26 -26
-74 0 -100 19 -19 32 -20 158 -19 l137 2 3 -497 2 -496 -420 0 -420 0 2 496 3
497 142 -2 141 -1 21 26 c27 35 27 65 -3 93 -22 21 -27 22 -107 12 -90 -10
-878 -7 -941 4 -29 6 -40 3 -57 -14z"/>
<path d="M7595 7171 c-121 -31 -199 -134 -199 -261 0 -281 363 -370 491 -122
51 100 44 190 -23 284 -54 76 -179 123 -269 99z"/>
<path d="M24250 7165 c-107 -34 -180 -138 -180 -255 1 -182 161 -306 331 -257
199 58 260 315 107 453 -22 20 -55 42 -73 50 -52 21 -134 26 -185 9z"/>
<path d="M25625 6340 c-286 -38 -461 -181 -495 -406 -15 -95 0 -188 45 -281
70 -142 190 -218 475 -297 243 -68 372 -137 401 -213 14 -39 10 -122 -8 -160
-25 -53 -79 -100 -142 -124 -46 -18 -77 -22 -171 -23 -165 0 -294 40 -364 113
l-26 27 41 34 c153 123 33 362 -160 319 -95 -21 -144 -89 -145 -200 -1 -314
518 -536 929 -397 157 53 275 149 336 273 34 69 34 71 34 205 0 131 -1 137
-31 201 -39 82 -91 141 -168 190 -73 48 -124 67 -361 136 -253 74 -316 106
-356 185 -41 80 -9 190 70 240 62 39 110 50 216 50 100 -1 203 -27 249 -63
l27 -22 -34 -36 c-48 -50 -57 -71 -57 -134 0 -117 103 -193 221 -163 90 24
138 94 139 202 0 179 -174 307 -470 343 -93 12 -107 12 -195 1z"/>
<path d="M11675 6329 c-341 -67 -579 -299 -640 -625 -23 -121 -16 -338 14
-442 96 -331 367 -537 746 -567 161 -13 363 36 488 119 142 94 262 288 231
371 -9 23 -51 37 -74 25 -10 -5 -37 -48 -59 -95 -90 -185 -255 -284 -472 -285
-188 0 -295 92 -349 304 -31 121 -53 480 -32 513 6 10 120 13 493 15 l484 3
-1 90 c-2 260 -187 485 -459 560 -72 20 -298 28 -370 14z m244 -134 c94 -49
136 -193 98 -340 l-13 -50 -232 -3 c-205 -2 -232 -1 -232 13 0 31 32 169 51
220 22 60 77 128 123 152 60 32 153 35 205 8z"/>
<path d="M13928 6321 c-111 -36 -198 -108 -262 -215 l-36 -60 0 103 c0 96 -1
103 -26 127 -18 19 -31 24 -47 19 -12 -3 -168 -9 -347 -12 -311 -4 -326 -6
-342 -25 -10 -11 -18 -30 -18 -43 0 -30 30 -66 55 -67 11 -1 73 2 138 6 l117
7 0 -642 0 -642 -131 6 c-129 6 -131 6 -155 -18 -29 -29 -31 -64 -6 -95 18
-22 21 -22 133 -13 144 12 640 13 779 1 133 -11 150 -5 150 56 0 67 -11 72
-167 68 l-133 -4 0 334 c0 183 5 374 10 423 23 202 83 366 166 455 54 58 99
84 162 95 45 7 51 2 26 -26 -25 -27 -43 -89 -43 -144 -1 -122 100 -224 222
-225 133 0 227 105 227 256 0 120 -59 207 -179 262 -75 34 -211 41 -293 13z"/>
<path d="M18722 6321 c-210 -53 -351 -179 -369 -329 -17 -147 104 -263 243
-232 107 24 164 95 164 204 0 68 -20 116 -63 152 l-31 26 27 24 c54 47 199 69
288 44 42 -12 82 -51 105 -105 15 -33 19 -79 22 -277 4 -226 3 -238 -14 -238
-148 -3 -333 -31 -449 -67 -180 -56 -317 -158 -377 -281 -31 -62 -33 -73 -33
-172 0 -92 3 -112 26 -161 35 -73 87 -125 168 -163 62 -29 73 -31 181 -31 93
1 127 5 180 24 78 27 181 86 255 147 30 24 58 44 62 44 5 0 16 -20 26 -45 23
-54 99 -126 153 -144 56 -19 248 -26 317 -11 68 14 184 70 226 109 53 50 54
119 1 146 -16 8 -37 15 -46 15 -9 0 -45 -29 -79 -65 -65 -68 -96 -80 -115 -46
-6 13 -10 157 -10 398 0 503 -12 606 -85 762 -62 131 -175 219 -340 263 -106
29 -337 34 -433 9z m388 -1050 l0 -199 -47 -41 c-62 -54 -143 -93 -201 -98
-60 -6 -107 24 -140 87 -20 39 -23 56 -19 125 5 99 32 166 90 223 65 63 158
98 270 101 l47 1 0 -199z"/>
<path d="M21199 6317 c-111 -38 -188 -103 -253 -211 l-36 -60 0 101 c0 112
-14 145 -60 144 -14 0 -173 -3 -355 -6 -320 -7 -331 -7 -348 -28 -32 -36 -6
-107 39 -109 10 -1 72 2 137 6 l117 7 0 -642 0 -642 -131 6 c-129 6 -131 6
-155 -18 -28 -29 -31 -64 -6 -95 17 -21 20 -22 132 -12 125 11 725 9 830 -3
81 -8 104 5 104 59 0 65 -16 71 -170 68 l-136 -4 5 384 c5 403 12 474 59 618
43 134 118 239 199 281 39 19 119 36 119 25 0 -4 -11 -24 -25 -45 -28 -41 -41
-118 -31 -174 11 -58 61 -123 118 -151 163 -81 328 34 328 230 0 121 -59 207
-180 263 -80 37 -209 41 -301 8z"/>
<path d="M22998 6321 c-115 -38 -196 -104 -262 -215 l-36 -60 0 101 c0 112
-14 145 -60 144 -14 0 -173 -3 -355 -6 -315 -6 -331 -8 -347 -27 -10 -11 -18
-30 -18 -43 0 -30 30 -66 55 -67 11 -1 73 2 138 6 l117 7 0 -642 0 -642 -131
6 c-129 6 -131 6 -155 -18 -28 -29 -31 -64 -6 -95 17 -22 21 -22 127 -13 141
12 650 13 780 1 54 -5 109 -7 121 -4 26 7 43 50 34 86 -10 42 -42 50 -177 43
l-123 -6 0 327 c0 180 5 370 10 424 34 315 146 516 309 554 57 13 72 7 48 -20
-83 -91 -53 -269 56 -336 163 -101 347 16 347 220 0 121 -63 211 -186 265 -70
31 -208 36 -286 10z"/>
<path d="M7760 6290 c-36 -4 -189 -8 -340 -9 -270 -1 -275 -2 -293 -23 -13
-16 -17 -31 -13 -52 12 -60 22 -63 194 -52 l112 7 0 -641 0 -642 -136 4 c-134
3 -136 3 -156 -22 -14 -17 -18 -33 -14 -55 10 -48 31 -58 106 -50 104 12 715
13 834 3 125 -11 138 -6 138 58 0 66 -20 74 -173 67 l-129 -6 0 691 0 691 -26
20 c-15 12 -29 20 -33 19 -3 0 -35 -4 -71 -8z"/>
<path d="M24489 6296 c-9 -8 -199 -16 -426 -16 -268 0 -273 -1 -273 -65 0 -24
7 -39 26 -54 15 -11 29 -19 33 -17 3 2 59 7 124 10 l117 7 0 -642 0 -642 -121
6 c-152 8 -179 -3 -179 -69 0 -49 29 -68 92 -60 114 14 567 18 757 7 178 -11
195 -11 212 5 29 26 25 78 -7 103 -24 19 -35 20 -150 14 l-123 -6 -3 691 c-3
599 -5 693 -18 706 -16 15 -54 29 -61 22z"/>
<path d="M17973 3070 c-101 -21 -181 -92 -208 -183 -22 -76 -22 -710 1 -786
20 -68 88 -143 152 -168 57 -22 177 -24 245 -4 60 17 128 77 158 138 24 48 24
49 24 423 0 371 0 376 -23 426 -28 62 -72 106 -132 133 -54 24 -158 34 -217
21z m125 -175 c49 -14 52 -38 52 -402 0 -376 -1 -380 -63 -400 -48 -16 -93 -7
-117 25 -19 23 -20 42 -20 371 0 382 1 388 60 408 34 11 42 11 88 -2z"/>
<path d="M21311 3070 c-96 -20 -175 -93 -200 -182 -9 -31 -11 -149 -9 -419 l3
-376 30 -48 c42 -67 89 -101 165 -121 123 -31 264 4 330 84 59 72 61 91 58
503 l-3 374 -29 53 c-48 87 -119 127 -239 136 -34 3 -82 1 -106 -4z m156 -196
c32 -34 35 -76 31 -419 -3 -347 -4 -348 -72 -366 -30 -8 -48 -7 -75 3 -59 23
-62 44 -59 424 l3 332 24 26 c39 41 110 42 148 0z"/>
<path d="M7300 2495 l0 -565 95 0 95 0 0 229 0 228 108 6 c59 3 128 13 153 22
65 23 122 75 150 137 20 46 23 69 24 173 0 105 -3 126 -23 170 -62 134 -141
165 -427 165 l-175 0 0 -565z m378 378 c41 -30 52 -61 52 -148 0 -132 -33
-167 -159 -169 l-76 -1 -3 160 c-1 87 0 166 3 173 8 23 148 11 183 -15z"/>
<path d="M8410 2495 l0 -565 275 0 275 0 0 85 0 85 -175 0 -175 0 0 165 0 165
125 0 125 0 0 85 0 85 -125 0 -125 0 0 145 0 145 160 0 160 0 0 85 0 85 -260
0 -260 0 0 -565z"/>
<path d="M9440 2496 l0 -566 100 0 100 0 0 229 0 229 46 4 c25 2 47 1 49 -2 1
-3 31 -99 64 -215 34 -115 64 -218 67 -227 5 -16 19 -18 105 -18 54 0 99 1 99
3 0 2 -36 114 -79 250 l-79 248 48 48 c61 61 81 124 81 252 0 159 -47 253
-153 300 -49 22 -69 24 -250 27 l-198 4 0 -566z m340 386 c19 -9 41 -30 49
-46 20 -42 25 -143 9 -195 -18 -60 -50 -82 -132 -88 l-66 -6 0 177 0 176 53 0
c29 0 67 -8 87 -18z"/>
<path d="M10560 2495 l0 -565 95 0 95 0 2 248 3 247 128 3 127 3 0 84 0 85
-130 0 -130 0 0 145 0 145 175 0 175 0 0 85 0 85 -270 0 -270 0 0 -565z"/>
<path d="M11583 2593 c2 -371 6 -476 17 -508 8 -22 37 -63 65 -91 60 -60 114
-79 225 -79 99 0 155 22 213 84 76 81 77 87 77 608 l0 453 -100 0 -100 0 0
-449 c0 -274 -4 -460 -10 -476 -15 -38 -69 -59 -121 -45 -69 19 -69 17 -69
525 l0 445 -101 0 -100 0 4 -467z"/>
<path d="M12690 2495 l0 -565 85 0 85 0 2 423 3 422 85 -422 84 -423 48 0 c41
0 48 3 53 23 3 12 41 199 84 414 42 216 81 396 84 400 4 3 7 -183 7 -415 l0
-422 85 0 85 0 0 565 0 565 -129 0 -130 0 -15 -72 c-38 -173 -116 -553 -116
-562 0 -6 -3 -6 -8 0 -5 5 -38 150 -73 321 l-64 313 -127 0 -128 0 0 -565z"/>
<path d="M13990 2495 l0 -565 270 0 270 0 0 85 0 85 -175 0 -175 0 2 163 3
162 123 3 122 3 0 84 0 85 -125 0 -125 0 0 145 0 145 165 0 165 0 0 85 0 85
-260 0 -260 0 0 -565z"/>
<path d="M15010 2495 l0 -565 100 0 100 0 0 229 0 229 46 4 c57 4 49 20 130
-259 l59 -203 98 0 99 0 -7 28 c-3 15 -38 128 -78 251 l-73 224 51 51 c64 64
80 115 80 246 -1 141 -27 209 -105 271 -57 46 -131 59 -327 59 l-173 0 0 -565z
m339 389 c30 -12 43 -25 55 -55 20 -49 21 -158 2 -204 -20 -46 -52 -64 -130
-72 l-66 -6 0 177 0 176 50 0 c27 0 67 -7 89 -16z"/>
<path d="M16800 2495 l0 -565 250 0 250 0 0 85 0 85 -150 0 -150 0 0 480 0
480 -100 0 -100 0 0 -565z"/>
<path d="M18860 2495 l0 -565 90 0 90 0 0 335 c0 184 4 335 8 335 4 0 48 -114
96 -252 49 -139 102 -290 118 -335 l30 -83 84 0 84 0 0 565 0 565 -90 0 -91 0
3 -315 c2 -172 0 -311 -3 -307 -4 4 -55 140 -114 302 -59 162 -110 301 -112
308 -4 8 -33 12 -99 12 l-94 0 0 -565z"/>
<path d="M19980 2496 l0 -566 178 0 c133 0 192 4 231 16 71 21 134 79 163 152
22 55 23 66 23 392 0 296 -2 341 -18 386 -23 66 -74 126 -134 155 -44 22 -63
24 -245 27 l-198 4 0 -566z m330 391 c67 -23 70 -41 70 -390 0 -348 -3 -367
-64 -392 -20 -8 -58 -15 -86 -15 l-50 0 0 405 0 405 48 -1 c26 0 63 -5 82 -12z"/>
<path d="M22210 2495 l0 -565 90 0 90 0 0 348 1 347 100 -285 c56 -157 110
-313 122 -347 l21 -63 88 0 88 0 0 565 0 565 -90 0 -90 0 -2 -317 -3 -317
-115 314 -116 315 -92 3 -92 3 0 -566z"/>
</g>
</svg>
